<svg width="608" height="832" viewBox="0 0 608 832" fill="none" xmlns="http://www.w3.org/2000/svg">
<rect width="567" height="832" fill="#006B3F"/>
<g opacity="0.67">
<ellipse cx="142.39" cy="751.175" rx="28.5" ry="35.0107" transform="rotate(-90.0912 142.39 751.175)" fill="white" fill-opacity="0.2"/>
<ellipse cx="483.839" cy="714.631" rx="7.5" ry="9.21333" transform="rotate(-90.0912 483.839 714.631)" fill="white" fill-opacity="0.2"/>
<ellipse cx="462.225" cy="794.515" rx="7.5" ry="9.21333" transform="rotate(-90.0912 462.225 794.515)" fill="white" fill-opacity="0.2"/>
<ellipse cx="222.835" cy="708.528" rx="14.5" ry="17.8124" transform="rotate(-90.0912 222.835 708.528)" fill="white" fill-opacity="0.2"/>
<rect width="16.9407" height="42.9889" transform="matrix(-0.803442 -0.595384 0.741204 -0.671279 334.63 735.944)" fill="white" fill-opacity="0.2"/>
<rect width="16.9407" height="42.9889" transform="matrix(-0.803442 -0.595384 0.741204 -0.671279 75.6108 841.944)" fill="white" fill-opacity="0.2"/>
<rect width="16.9407" height="42.9889" transform="matrix(-0.803442 -0.595384 0.741204 -0.671279 12.7173 806.944)" fill="white" fill-opacity="0.2"/>
<path d="M316.458 836.359L208.031 828.314L270.808 755.402L316.458 836.359Z" fill="white" fill-opacity="0.2"/>
<path d="M588.289 777.144L531.479 772.929L564.371 734.727L588.289 777.144Z" fill="white" fill-opacity="0.2"/>
<path d="M31.0811 854.352L60.9464 829.805L90.8898 854.257L61.0244 878.805L31.0811 854.352Z" fill="white" fill-opacity="0.2"/>
<path d="M384.757 754.564L405 738.032L425.296 754.5L405.053 771.032L384.757 754.564Z" fill="white" fill-opacity="0.2"/>
<path d="M346.026 803.565L366.269 787.032L386.565 803.5L366.322 820.032L346.026 803.565Z" fill="white" fill-opacity="0.2"/>
</g>
</svg>
